# xmcd
#
# Track frame offsets:
#	150
#	17588
#	31546
#	52170
#	69234
#	81014
#	94815
#	110196
#	124753
#	137423
#	156481
#	184102
#	201073
#	215918
#
# Disc length: 3023 seconds
#
# Revision: 0
# Processed by: cddbd v1.5.2PL0 Copyright (c) Steve Scherf et al.
# Submitted via: dBpowerAMP V4.0
#
DISCID=c30bcd0e
DTITLE=Dozi - Kom 'n bietjie binne
DYEAR=2006
DGENRE=Country
TTITLE0=Sonder jou
TTITLE1=Jy
TTITLE2=Hlangana Naye (Come together in Him)
TTITLE3=Kom 'n bietjie binne
TTITLE4=Pretoria prinses
TTITLE5=Susanna soen my
TTITLE6=Soutsmaak
TTITLE7=As ek verlief raak
TTITLE8=Tiger and Louise
TTITLE9=Kuzokulunga (it's gonna be alright)
TTITLE10=Medley
TTITLE11=Making memories of us
TTITLE12=Lugspore
TTITLE13=Gerugte
EXTD=
EXTT0=
EXTT1=
EXTT2=
EXTT3=
EXTT4=
EXTT5=
EXTT6=
EXTT7=
EXTT8=
EXTT9=
EXTT10=
EXTT11=
EXTT12=
EXTT13=
PLAYORDER=
